<mxfile host="65bd71144e">
    <diagram id="snpqSXfEuBXJVEXiJXDS" name="Page-1">
        <mxGraphModel dx="2598" dy="1146" grid="1" gridSize="10" guides="1" tooltips="1" connect="1" arrows="1" fold="1" page="1" pageScale="1" pageWidth="827" pageHeight="1169" math="0" shadow="0">
            <root>
                <mxCell id="0"/>
                <mxCell id="1" parent="0"/>
                <mxCell id="29" value="全体" style="swimlane;html=1;childLayout=stackLayout;resizeParent=1;resizeParentMax=0;horizontal=0;startSize=20;horizontalStack=0;" parent="1" vertex="1">
                    <mxGeometry x="40" y="280" width="1190" height="780" as="geometry">
                        <mxRectangle x="40" y="280" width="40" height="60" as="alternateBounds"/>
                    </mxGeometry>
                </mxCell>
                <mxCell id="30" value="エラー通知&lt;br&gt;" style="edgeStyle=orthogonalEdgeStyle;rounded=0;orthogonalLoop=1;jettySize=auto;html=1;dashed=1;endArrow=classic;endFill=1;exitX=1;exitY=0.5;exitDx=0;exitDy=0;entryX=0.5;entryY=1;entryDx=0;entryDy=0;fontSize=16;" parent="29" source="85" target="36" edge="1">
                    <mxGeometry x="-0.7941" y="10" relative="1" as="geometry">
                        <mxPoint x="325" y="420" as="sourcePoint"/>
                        <mxPoint x="355.0588235294117" y="480" as="targetPoint"/>
                        <mxPoint as="offset"/>
                    </mxGeometry>
                </mxCell>
                <mxCell id="34" value="配送員" style="swimlane;html=1;startSize=20;horizontal=0;fontSize=16;" parent="29" vertex="1">
                    <mxGeometry x="20" width="1170" height="290" as="geometry"/>
                </mxCell>
                <mxCell id="35" value="" style="edgeStyle=orthogonalEdgeStyle;rounded=0;orthogonalLoop=1;jettySize=auto;html=1;entryX=0.5;entryY=1;entryDx=0;entryDy=0;fontSize=16;" parent="34" source="36" target="92" edge="1">
                    <mxGeometry relative="1" as="geometry">
                        <mxPoint x="590" y="50" as="targetPoint"/>
                    </mxGeometry>
                </mxCell>
                <mxCell id="36" value="出勤" style="ellipse;whiteSpace=wrap;html=1;fontSize=16;" parent="34" vertex="1">
                    <mxGeometry x="460" y="30" width="40" height="40" as="geometry"/>
                </mxCell>
                <mxCell id="39" value="配送業務" style="rounded=0;whiteSpace=wrap;html=1;fontFamily=Helvetica;fontSize=16;align=center;fillColor=#f5f5f5;fontColor=#333333;strokeColor=#666666;" parent="34" vertex="1">
                    <mxGeometry x="910" y="30" width="90" height="40" as="geometry"/>
                </mxCell>
                <mxCell id="40" value="退勤" style="ellipse;whiteSpace=wrap;html=1;fontSize=16;" parent="34" vertex="1">
                    <mxGeometry x="1100" y="30" width="40" height="40" as="geometry"/>
                </mxCell>
                <mxCell id="50" value="配送ルート&lt;br style=&quot;font-size: 16px;&quot;&gt;確認" style="rounded=0;whiteSpace=wrap;html=1;fontFamily=Helvetica;fontSize=16;fontColor=#000000;align=center;" parent="34" vertex="1">
                    <mxGeometry x="660" y="30" width="90" height="40" as="geometry"/>
                </mxCell>
                <mxCell id="57" value="タンクローリ補充" style="rounded=0;whiteSpace=wrap;html=1;fontFamily=Helvetica;fontSize=16;align=center;" parent="34" vertex="1">
                    <mxGeometry x="1020" y="10" width="60" height="80" as="geometry"/>
                </mxCell>
                <mxCell id="38" value="" style="edgeStyle=orthogonalEdgeStyle;rounded=0;orthogonalLoop=1;jettySize=auto;html=1;endArrow=classic;endFill=1;entryX=0;entryY=0.5;entryDx=0;entryDy=0;fontSize=16;" parent="34" source="39" target="57" edge="1">
                    <mxGeometry relative="1" as="geometry"/>
                </mxCell>
                <mxCell id="58" value="" style="edgeStyle=orthogonalEdgeStyle;rounded=0;orthogonalLoop=1;jettySize=auto;html=1;endArrow=classic;endFill=1;entryX=0;entryY=0.5;entryDx=0;entryDy=0;exitX=1;exitY=0.5;exitDx=0;exitDy=0;fontSize=16;" parent="34" source="57" target="40" edge="1">
                    <mxGeometry relative="1" as="geometry">
                        <mxPoint x="1020" y="-30" as="sourcePoint"/>
                        <mxPoint x="1060" y="-50" as="targetPoint"/>
                    </mxGeometry>
                </mxCell>
                <mxCell id="61" value="前回の&lt;br style=&quot;font-size: 16px;&quot;&gt;配送ルート&lt;br style=&quot;font-size: 16px;&quot;&gt;利用" style="rounded=0;whiteSpace=wrap;html=1;fontFamily=Helvetica;fontSize=16;fontColor=#000000;align=center;" parent="34" vertex="1">
                    <mxGeometry x="760.5" y="110" width="90" height="70" as="geometry"/>
                </mxCell>
                <mxCell id="62" value="True" style="edgeStyle=orthogonalEdgeStyle;rounded=0;orthogonalLoop=1;jettySize=auto;html=1;endArrow=classic;endFill=1;entryX=0.5;entryY=0;entryDx=0;entryDy=0;exitX=1;exitY=0.5;exitDx=0;exitDy=0;fontSize=16;" parent="34" target="61" edge="1">
                    <mxGeometry relative="1" as="geometry">
                        <mxPoint x="805" y="75" as="sourcePoint"/>
                        <mxPoint x="740" y="260" as="targetPoint"/>
                        <Array as="points">
                            <mxPoint x="805" y="90"/>
                            <mxPoint x="806" y="100"/>
                        </Array>
                    </mxGeometry>
                </mxCell>
                <mxCell id="65" value="" style="edgeStyle=orthogonalEdgeStyle;rounded=0;orthogonalLoop=1;jettySize=auto;html=1;endArrow=classic;endFill=1;entryX=0;entryY=0.5;entryDx=0;entryDy=0;exitX=1;exitY=0.5;exitDx=0;exitDy=0;fontSize=16;" parent="34" source="61" target="39" edge="1">
                    <mxGeometry relative="1" as="geometry">
                        <mxPoint x="750" y="60" as="sourcePoint"/>
                        <mxPoint x="790" y="60" as="targetPoint"/>
                    </mxGeometry>
                </mxCell>
                <mxCell id="92" value="エラー&lt;br&gt;通知?" style="rhombus;whiteSpace=wrap;html=1;fontFamily=Helvetica;fontSize=16;fontColor=#000000;align=center;direction=south;" parent="34" vertex="1">
                    <mxGeometry x="530" y="22.5" width="71" height="55" as="geometry"/>
                </mxCell>
                <mxCell id="93" value="False" style="edgeStyle=orthogonalEdgeStyle;rounded=0;orthogonalLoop=1;jettySize=auto;html=1;exitX=0.5;exitY=0;exitDx=0;exitDy=0;fontSize=16;" parent="34" source="92" target="50" edge="1">
                    <mxGeometry relative="1" as="geometry">
                        <mxPoint x="630" y="90" as="sourcePoint"/>
                        <mxPoint x="560" y="60" as="targetPoint"/>
                    </mxGeometry>
                </mxCell>
                <mxCell id="102" value="True" style="edgeStyle=orthogonalEdgeStyle;rounded=0;orthogonalLoop=1;jettySize=auto;html=1;exitX=1;exitY=0.5;exitDx=0;exitDy=0;entryX=0;entryY=0.5;entryDx=0;entryDy=0;fontSize=16;" parent="34" source="92" target="61" edge="1">
                    <mxGeometry x="-0.7038" relative="1" as="geometry">
                        <mxPoint x="630.9999999999995" y="60.000000000000114" as="sourcePoint"/>
                        <mxPoint x="689.9999999999995" y="60.000000000000114" as="targetPoint"/>
                        <mxPoint as="offset"/>
                    </mxGeometry>
                </mxCell>
                <mxCell id="110" value="目視で&lt;br&gt;異常?" style="rhombus;whiteSpace=wrap;html=1;fontFamily=Helvetica;fontSize=16;fontColor=#000000;align=center;direction=south;" parent="34" vertex="1">
                    <mxGeometry x="770" y="22.5" width="71" height="55" as="geometry"/>
                </mxCell>
                <mxCell id="56" value="" style="edgeStyle=orthogonalEdgeStyle;rounded=0;orthogonalLoop=1;jettySize=auto;html=1;endArrow=classic;endFill=1;entryX=0.5;entryY=1;entryDx=0;entryDy=0;exitX=1;exitY=0.5;exitDx=0;exitDy=0;fontSize=16;" parent="34" source="50" target="110" edge="1">
                    <mxGeometry relative="1" as="geometry">
                        <mxPoint x="760" y="120" as="sourcePoint"/>
                        <mxPoint x="780" y="50" as="targetPoint"/>
                    </mxGeometry>
                </mxCell>
                <mxCell id="60" value="False" style="edgeStyle=orthogonalEdgeStyle;rounded=0;orthogonalLoop=1;jettySize=auto;html=1;endArrow=classic;endFill=1;entryX=0;entryY=0.5;entryDx=0;entryDy=0;exitX=0.5;exitY=0;exitDx=0;exitDy=0;fontSize=16;" parent="34" source="110" target="39" edge="1">
                    <mxGeometry x="-0.4493" y="10" relative="1" as="geometry">
                        <mxPoint x="830" y="50" as="sourcePoint"/>
                        <mxPoint x="790" y="60" as="targetPoint"/>
                        <mxPoint as="offset"/>
                    </mxGeometry>
                </mxCell>
                <mxCell id="118" value="配送員の&lt;br&gt;判断" style="rounded=0;whiteSpace=wrap;html=1;fontFamily=Helvetica;fontSize=16;fontColor=#000000;align=center;" parent="34" vertex="1">
                    <mxGeometry x="760.5" y="220" width="90" height="50" as="geometry"/>
                </mxCell>
                <mxCell id="119" value="Error" style="edgeStyle=orthogonalEdgeStyle;rounded=0;orthogonalLoop=1;jettySize=auto;html=1;exitX=0.5;exitY=1;exitDx=0;exitDy=0;entryX=0.5;entryY=0;entryDx=0;entryDy=0;fontSize=16;" parent="34" source="61" target="118" edge="1">
                    <mxGeometry y="14" relative="1" as="geometry">
                        <mxPoint x="549.9999999999995" y="230" as="sourcePoint"/>
                        <mxPoint x="745" y="297.5" as="targetPoint"/>
                        <mxPoint as="offset"/>
                    </mxGeometry>
                </mxCell>
                <mxCell id="120" value="" style="edgeStyle=orthogonalEdgeStyle;rounded=0;orthogonalLoop=1;jettySize=auto;html=1;exitX=1;exitY=0.5;exitDx=0;exitDy=0;entryX=0;entryY=0.5;entryDx=0;entryDy=0;fontSize=16;" parent="34" source="118" target="39" edge="1">
                    <mxGeometry relative="1" as="geometry">
                        <mxPoint x="980" y="250" as="sourcePoint"/>
                        <mxPoint x="1020.00000000002" y="170" as="targetPoint"/>
                    </mxGeometry>
                </mxCell>
                <mxCell id="186" value="GS" style="swimlane;html=1;startSize=20;horizontal=0;fontSize=16;" vertex="1" parent="29">
                    <mxGeometry x="20" y="290" width="1170" height="90" as="geometry"/>
                </mxCell>
                <mxCell id="189" value="使用量送信" style="rounded=0;whiteSpace=wrap;html=1;fontFamily=Helvetica;fontSize=16;fontColor=#000000;align=center;" vertex="1" parent="186">
                    <mxGeometry x="1050" y="26.25" width="100" height="25" as="geometry"/>
                </mxCell>
                <mxCell id="191" value="タンク補充" style="rounded=0;whiteSpace=wrap;html=1;fontFamily=Helvetica;fontSize=16;fontColor=#000000;align=center;" vertex="1" parent="186">
                    <mxGeometry x="970" y="20" width="50" height="37.5" as="geometry"/>
                </mxCell>
                <mxCell id="193" value="" style="edgeStyle=orthogonalEdgeStyle;rounded=0;orthogonalLoop=1;jettySize=auto;html=1;endArrow=classic;endFill=1;fontSize=16;" edge="1" parent="186" source="191" target="189">
                    <mxGeometry relative="1" as="geometry">
                        <mxPoint x="780" y="210" as="sourcePoint"/>
                        <mxPoint x="839.5" y="115" as="targetPoint"/>
                    </mxGeometry>
                </mxCell>
                <mxCell id="182" value="DB" style="swimlane;html=1;startSize=20;horizontal=0;fontSize=16;" vertex="1" parent="29">
                    <mxGeometry x="20" y="380" width="1170" height="120" as="geometry"/>
                </mxCell>
                <mxCell id="183" value="出力結果テーブル" style="shape=cylinder3;whiteSpace=wrap;html=1;boundedLbl=1;backgroundOutline=1;size=15;" vertex="1" parent="182">
                    <mxGeometry x="325" y="20" width="60" height="65" as="geometry"/>
                </mxCell>
                <mxCell id="184" value="使用量&lt;br&gt;テーブル" style="shape=cylinder3;whiteSpace=wrap;html=1;boundedLbl=1;backgroundOutline=1;size=15;" vertex="1" parent="182">
                    <mxGeometry x="30" y="20" width="60" height="65" as="geometry"/>
                </mxCell>
                <mxCell id="41" value="システム" style="swimlane;html=1;startSize=20;horizontal=0;" parent="29" vertex="1">
                    <mxGeometry x="20" y="500" width="1170" height="280" as="geometry"/>
                </mxCell>
                <mxCell id="66" value="開始" style="ellipse;whiteSpace=wrap;html=1;fontSize=16;" parent="41" vertex="1">
                    <mxGeometry x="40" y="85" width="40" height="40" as="geometry"/>
                </mxCell>
                <mxCell id="68" value="予測処理" style="rounded=0;whiteSpace=wrap;html=1;fontFamily=Helvetica;fontSize=16;fontColor=#333333;align=center;fillColor=#f5f5f5;strokeColor=#666666;" parent="41" vertex="1">
                    <mxGeometry x="220" y="85" width="70" height="40" as="geometry"/>
                </mxCell>
                <mxCell id="69" value="最適化&lt;br&gt;処理" style="rounded=0;whiteSpace=wrap;html=1;fontFamily=Helvetica;fontSize=16;fontColor=#333333;align=center;fillColor=#f5f5f5;strokeColor=#666666;" parent="41" vertex="1">
                    <mxGeometry x="320" y="85" width="70" height="40" as="geometry"/>
                </mxCell>
                <mxCell id="85" value="エラー&lt;br&gt;通知" style="rounded=0;whiteSpace=wrap;html=1;fontFamily=Helvetica;fontSize=16;fontColor=#000000;align=center;" parent="41" vertex="1">
                    <mxGeometry x="320" y="200" width="70" height="40" as="geometry"/>
                </mxCell>
                <mxCell id="86" value="Error" style="edgeStyle=orthogonalEdgeStyle;rounded=0;orthogonalLoop=1;jettySize=auto;html=1;endArrow=classic;endFill=1;entryX=0;entryY=0.5;entryDx=0;entryDy=0;exitX=0.5;exitY=1;exitDx=0;exitDy=0;fontSize=16;" parent="41" source="68" target="85" edge="1">
                    <mxGeometry x="-0.52" relative="1" as="geometry">
                        <mxPoint x="304" y="295" as="sourcePoint"/>
                        <mxPoint x="374" y="295" as="targetPoint"/>
                        <mxPoint as="offset"/>
                    </mxGeometry>
                </mxCell>
                <mxCell id="87" value="Error" style="edgeStyle=orthogonalEdgeStyle;rounded=0;orthogonalLoop=1;jettySize=auto;html=1;endArrow=classic;endFill=1;entryX=0.5;entryY=0;entryDx=0;entryDy=0;exitX=0.5;exitY=1;exitDx=0;exitDy=0;fontSize=16;" parent="41" source="69" target="85" edge="1">
                    <mxGeometry relative="1" as="geometry">
                        <mxPoint x="235" y="135" as="sourcePoint"/>
                        <mxPoint x="290" y="195" as="targetPoint"/>
                    </mxGeometry>
                </mxCell>
                <mxCell id="89" value="" style="edgeStyle=orthogonalEdgeStyle;rounded=0;orthogonalLoop=1;jettySize=auto;html=1;endArrow=classic;endFill=1;entryX=0;entryY=0.5;entryDx=0;entryDy=0;exitX=1;exitY=0.5;exitDx=0;exitDy=0;fontSize=16;" parent="41" source="68" target="69" edge="1">
                    <mxGeometry relative="1" as="geometry">
                        <mxPoint x="324" y="295" as="sourcePoint"/>
                        <mxPoint x="394" y="295" as="targetPoint"/>
                    </mxGeometry>
                </mxCell>
                <mxCell id="90" value="False" style="edgeStyle=orthogonalEdgeStyle;rounded=0;orthogonalLoop=1;jettySize=auto;html=1;endArrow=classic;endFill=1;entryX=0;entryY=0.5;entryDx=0;entryDy=0;fontSize=16;" parent="41" source="149" target="68" edge="1">
                    <mxGeometry x="-0.2245" y="15" relative="1" as="geometry">
                        <mxPoint x="170" y="105" as="sourcePoint"/>
                        <mxPoint x="374" y="295" as="targetPoint"/>
                        <mxPoint as="offset"/>
                    </mxGeometry>
                </mxCell>
                <mxCell id="91" value="" style="edgeStyle=orthogonalEdgeStyle;rounded=0;orthogonalLoop=1;jettySize=auto;html=1;endArrow=classic;endFill=1;entryX=0.5;entryY=1;entryDx=0;entryDy=0;exitX=1;exitY=0.5;exitDx=0;exitDy=0;fontSize=16;" parent="41" source="66" target="149" edge="1">
                    <mxGeometry relative="1" as="geometry">
                        <mxPoint x="170" y="115" as="sourcePoint"/>
                        <mxPoint x="100" y="105" as="targetPoint"/>
                    </mxGeometry>
                </mxCell>
                <mxCell id="103" value="True" style="edgeStyle=orthogonalEdgeStyle;rounded=0;orthogonalLoop=1;jettySize=auto;html=1;endArrow=classic;endFill=1;entryX=0;entryY=0.5;entryDx=0;entryDy=0;fontSize=16;" parent="41" source="149" target="85" edge="1">
                    <mxGeometry x="-0.9309" y="25" relative="1" as="geometry">
                        <mxPoint x="135" y="135" as="sourcePoint"/>
                        <mxPoint x="310.00000000000045" y="195" as="targetPoint"/>
                        <Array as="points">
                            <mxPoint x="136" y="220"/>
                        </Array>
                        <mxPoint y="1" as="offset"/>
                    </mxGeometry>
                </mxCell>
                <mxCell id="104" value="終了" style="ellipse;whiteSpace=wrap;html=1;fontSize=16;" parent="41" vertex="1">
                    <mxGeometry x="430" y="85" width="40" height="40" as="geometry"/>
                </mxCell>
                <mxCell id="105" value="" style="edgeStyle=orthogonalEdgeStyle;rounded=0;orthogonalLoop=1;jettySize=auto;html=1;entryX=0;entryY=0.5;entryDx=0;entryDy=0;exitX=1;exitY=0.5;exitDx=0;exitDy=0;fontSize=16;" parent="41" source="69" target="104" edge="1">
                    <mxGeometry relative="1" as="geometry">
                        <mxPoint x="519.9999999999995" y="-94.99999999999989" as="sourcePoint"/>
                        <mxPoint x="569.9999999999995" y="-94.99999999999989" as="targetPoint"/>
                    </mxGeometry>
                </mxCell>
                <mxCell id="106" value="" style="edgeStyle=orthogonalEdgeStyle;rounded=0;orthogonalLoop=1;jettySize=auto;html=1;exitX=1;exitY=0.5;exitDx=0;exitDy=0;entryX=0;entryY=0.5;entryDx=0;entryDy=0;fontSize=16;" parent="41" source="85" target="104" edge="1">
                    <mxGeometry relative="1" as="geometry">
                        <mxPoint x="380.00000000000045" y="115" as="sourcePoint"/>
                        <mxPoint x="670" y="135" as="targetPoint"/>
                    </mxGeometry>
                </mxCell>
                <mxCell id="149" value="DB更新&lt;br&gt;エラー？" style="rhombus;whiteSpace=wrap;html=1;fontFamily=Helvetica;fontSize=16;fontColor=#000000;align=center;direction=south;" vertex="1" parent="41">
                    <mxGeometry x="100" y="77.5" width="71" height="55" as="geometry"/>
                </mxCell>
                <mxCell id="122" value="予測結果" style="edgeStyle=orthogonalEdgeStyle;rounded=0;orthogonalLoop=1;jettySize=auto;html=1;dashed=1;endArrow=classic;endFill=1;fontSize=16;" edge="1" parent="29" source="68" target="183">
                    <mxGeometry x="-0.8182" y="10" relative="1" as="geometry">
                        <mxPoint x="400" y="570" as="sourcePoint"/>
                        <mxPoint x="355" y="397.5" as="targetPoint"/>
                        <mxPoint as="offset"/>
                        <Array as="points">
                            <mxPoint x="275" y="570"/>
                            <mxPoint x="375" y="570"/>
                        </Array>
                    </mxGeometry>
                </mxCell>
                <mxCell id="123" value="配送ルート結果" style="edgeStyle=orthogonalEdgeStyle;rounded=0;orthogonalLoop=1;jettySize=auto;html=1;dashed=1;endArrow=classic;endFill=1;fontSize=16;" edge="1" parent="29" source="69" target="183">
                    <mxGeometry x="-0.6078" y="-35" relative="1" as="geometry">
                        <mxPoint x="265" y="470" as="sourcePoint"/>
                        <mxPoint x="355" y="397.5" as="targetPoint"/>
                        <mxPoint as="offset"/>
                        <Array as="points"/>
                    </mxGeometry>
                </mxCell>
                <mxCell id="151" value="" style="edgeStyle=orthogonalEdgeStyle;rounded=0;orthogonalLoop=1;jettySize=auto;html=1;dashed=1;endArrow=classic;endFill=1;fontSize=16;" edge="1" parent="29" source="184" target="66">
                    <mxGeometry x="0.1373" y="10" relative="1" as="geometry">
                        <mxPoint x="80" y="397.5" as="sourcePoint"/>
                        <mxPoint x="335" y="400" as="targetPoint"/>
                        <mxPoint as="offset"/>
                        <Array as="points"/>
                    </mxGeometry>
                </mxCell>
                <mxCell id="190" value="" style="edgeStyle=orthogonalEdgeStyle;rounded=0;orthogonalLoop=1;jettySize=auto;html=1;dashed=1;endArrow=classic;endFill=1;fontSize=16;" edge="1" parent="29" source="183" target="36">
                    <mxGeometry x="-0.6078" y="-35" relative="1" as="geometry">
                        <mxPoint x="469" y="477.5" as="sourcePoint"/>
                        <mxPoint x="469" y="350" as="targetPoint"/>
                        <mxPoint as="offset"/>
                        <Array as="points"/>
                    </mxGeometry>
                </mxCell>
                <mxCell id="192" value="" style="edgeStyle=orthogonalEdgeStyle;rounded=0;orthogonalLoop=1;jettySize=auto;html=1;dashed=1;endArrow=classic;endFill=1;fontSize=16;" edge="1" parent="29" source="39" target="191">
                    <mxGeometry x="-0.6078" y="-35" relative="1" as="geometry">
                        <mxPoint x="415" y="442.5" as="sourcePoint"/>
                        <mxPoint x="510" y="80" as="targetPoint"/>
                        <mxPoint as="offset"/>
                        <Array as="points"/>
                    </mxGeometry>
                </mxCell>
                <mxCell id="194" value="" style="edgeStyle=orthogonalEdgeStyle;rounded=0;orthogonalLoop=1;jettySize=auto;html=1;dashed=1;endArrow=classic;endFill=1;fontSize=16;" edge="1" parent="29" source="189" target="184">
                    <mxGeometry x="-0.6078" y="-35" relative="1" as="geometry">
                        <mxPoint x="985" y="80" as="sourcePoint"/>
                        <mxPoint x="250" y="420" as="targetPoint"/>
                        <mxPoint as="offset"/>
                        <Array as="points">
                            <mxPoint x="1120" y="360"/>
                            <mxPoint x="80" y="360"/>
                        </Array>
                    </mxGeometry>
                </mxCell>
                <mxCell id="94" value="" style="shape=crossbar;whiteSpace=wrap;html=1;rounded=1;" parent="1" vertex="1">
                    <mxGeometry x="540" y="1070" width="670" height="20" as="geometry"/>
                </mxCell>
                <mxCell id="97" value="" style="shape=crossbar;whiteSpace=wrap;html=1;rounded=1;" parent="1" vertex="1">
                    <mxGeometry x="80" y="1070" width="460" height="20" as="geometry"/>
                </mxCell>
                <mxCell id="98" value="06:00" style="text;html=1;strokeColor=none;fillColor=none;align=center;verticalAlign=middle;whiteSpace=wrap;rounded=0;fontSize=15;fontStyle=0" parent="1" vertex="1">
                    <mxGeometry x="510" y="1100" width="60" height="30" as="geometry"/>
                </mxCell>
                <mxCell id="108" value="18:00" style="text;html=1;strokeColor=none;fillColor=none;align=center;verticalAlign=middle;whiteSpace=wrap;rounded=0;fontSize=15;fontStyle=0" parent="1" vertex="1">
                    <mxGeometry x="1181" y="1090" width="60" height="30" as="geometry"/>
                </mxCell>
                <mxCell id="109" value="18:00" style="text;html=1;strokeColor=none;fillColor=none;align=center;verticalAlign=middle;whiteSpace=wrap;rounded=0;fontSize=15;fontStyle=0" parent="1" vertex="1">
                    <mxGeometry x="50" y="1090" width="60" height="30" as="geometry"/>
                </mxCell>
                <mxCell id="112" value="" style="shape=image;imageAspect=0;aspect=fixed;verticalLabelPosition=bottom;verticalAlign=top;fontSize=16;fillColor=#E6E6E6;image=data:image/png,iVBORw0KGgoAAAANSUhEUgAAALoAAAC6CAYAAAFuCWdnAAAACXBIWXMAAAsRAAALEQF/ZF+RAAAeRElEQVR4nO1dB5getZlmDe7sumDcy7qtC27YXndjbNw77t2497oueN17BfcWytEhkAAhQAIHGA4CZ+AIBAhwAQ5CDRcgHPUC2YR31zKyLGmkGWk08/+T53nzsP5npG9efaORPn3lnOP/PH6OTVhtXNrBj//7J+/fRP+u3cGYg2PnsTfyOsDfo/ePWeCLIrrBHX/eWZP8ve2d7bVlT+SrAz+/n9EBLsx7fNkl7AWH//9IcdIQC/zGa7TlkFb3cJ+Avpn9WwbevUKKyEV5J5Z1U+1g6WN5lwo1zItfnafQfg+MdkBf3Kh740d1O8jp1ugEr8PC/+s4udO/0T9WaVT1Nd0OKjes8gb9d8nzS/2fcJD9UhSNQcbFVRtX+6NuBwseXNjX8wl4j6xDD+9pPOcVHWrqtMl+jqtFsnEYtW/0Qvx3j4WX7SM3d1/QYz/+rVqT6q/K+FfqgDRQs2Wt35O/azSv+ZLsqZU62Pv5vnJn8cnjWFeL2PdBpTFfHfBw4KuDZQ58ebCszj1aHfiB1sVTb5423lrjXtoSjcbR0KFvD5ek/2Y15/B3R0r4VkugfqcGT/Ear9+5wZOBdB7Y8OrGJrzfN/xxY2PlxkuUKfkV/cPuj/dUZiXmTWjkOoKjPxwrtvbFdS3OaJzM2bpTMntdybKlvuTSklGs2A+6cz17vZRzfKm6zrzkmE7jXaZ3/Rl3/pENpq703MZ3vr+rui7XMmqG7Ri+4nTjfgbSa2DPouXg14dKB2l8+m0zxkg5X/DAwn5GOScYe3jcnCCqKG3cD/e4jqwOhHqOH/qt6r9VRy3p667636svYP/dc+ISPZXorfR8ibwowt9Vcqq+HrhxmeR7P9tX3lfj2JHwOhRdr9W46GmsNU7P1cYb14Xuk2q3b6vhMuXLfgbhS5cr83lkhPd6fdjrdK4NhXlasLn3zhss+10k2Lz75g/UeUArwhNg/aNyL1knqXzVrAhfq1XtF9DhRX2bPUj+jUyYXsB15J5m/Zo/gH+r2aLWi0aEl9n5OkzseCN9bZkKZT/V+bSzwEvN9j/1lmnjzjkno4C9tv2EDjcpM9/wkpzHRUPLazwYMgrQLru29/1tZfVbpu+mIOrTiM7bFNzPiyv8YcDagRvpBte/vOGiMIRf+9K65jRRF2RXelsqvJcO45pSmaW/CEN4sr7xuq5wZcx7ovNKFv+WFX7o1stXhSH8kM1DV/OEP/L3o+elh84TkO1A2LPN5j9tqe9b+Ks/3VtB1rhNwVVHQls9yDXH/nE8w4TQaEenX986TzBiz8ilWBqQv2GX0xF4/SsbmrICq/SL6Tqw8DyBeLMBD7pLgEAvrIrwKg/HXkPsNgQ8a4hx4eu2r/cMOit27rnfi64Zf2zCTFqwcUfGz1Yhw7rwC3+7qLfu6PgZXWtqo6NeVtu32XgsBYe/CPETiZXgsdXzyAnef/WAzV7XTLxm0jQi+ITjE2d4XY+NjnXBIUy5auU/UGFbhXW0Fcp8riKQquBB5vxAgvM6vHhY61+w17QaevHdQUbFiODFS5X4RtapypKV/Q1tWhd8yaNLuwdZ8fHuXfLI0h7WBTcyzK6XufS/0R4EIuAar3Z8CV7svHP/joZw0i27ifZQgN3ES2AWtHMCvBq8hJx11+zhGRnF/iFlXNTZeSWKf7foocW9VK5VBds3dlYwgatcq/wCAVf/dW9F0kFQoQmImytczVQfUKrjsgZMCa3SLm0hUH45wxCabp+19aw6mZ/ra1Y59M3hUmgALy3+bjs693ZbgrcZ2fbnNDGtR7S5U3lW4WH23XOG2mabHVWVL6nyvLn1rW11bQuuYlPUFty20CzrvgUnDZG3OmzBT4/Cf29p4Cl49YtqvMw25Fpw0WicM/bQuLmyhqIkOEF2bt2ThRfJzMlRExzLaq6Os84GURCcN6dL31yc2bsSXGZg1ZoO67TNfta20LVb13ne+DweButasqgI231+jwNhCY6ls8pDKDNsm3VZn1qCsw2TFWK9DvWfNi00TjzQNruZyKyc9bGW4Dqs2GKboM/KvtuVBOd99m0Kf3r6O7VR54FnZz/jj0nXTZ5CLq5Qq+K7ongDgl55vXf7Fbjnkl5XidodtXf0ItED+poOabbps058LFQFpj8sotA0HvZ/cSDTiOA8JuApx3sI/BvtRce2oRsOZERwgD42171XpArGBe80pfN1bKfnV8r8REcwJ4KzHeIF9cOoU8GxgWZ/563thUYdF4LrjIrsWsQB4xpEV1kX3OuazAuz/sLTfxE6TOp4Q8vBre61JviK363saHJkaBAfRWuM2xJcu31bDffL77+l75X9tsVOcNtwLoBvwS2qYUI6B4hyAOnVm9X4g2tZ0oJ0ZIKhv83Ij+JapkiRjk+uqv+fssAG1sYyLH54Sc/lT67oHFvSaZJ4waK6wBE5j3T26NwPGvdo8ojtJUtopBM3Xd6mXwewE8mMCb2X99npp112r4/Dj9iTTnLG8MDbDPJAEnd4gU4AIsPWt7dli9rAQX3sSS/sxIMs1nyge7/q/N57WZ9dQe6PFek84xIPvA03WR6qgreMpDf1MnS6ovP1KUO6qrbCPKkaDKMKtFe24vl/DfqWpBTpJMMZDzBcI/OZqnUe1+GUiTV400Byy8iSjkN/9pggCBCfJtNmnOvoHH3oAO3S8W28t2D4rhHLnJPupaEEOKPHgRTCe3U7D3JAFgSywzUVwPUW1ryKtS94h9f+pGsnTw1EOrD93R21fGnYqUNrGqZCSU2Bdzbht61qTau/YkTTaSDoUVUApEQz9TBhIKisRqcXHrKqlPtIJgBxhiGw4Z5hA8Tlg0DmjEDgZzPle14TaQNyxMVFu1W0ls4CRwPpwH3zFoR0YMubW+udHvVT0QtxJpxHPO3shBTPQTkLTLrOWxA30M+z+N+XXGaMGxuEh+FOGgZ0XFZDIR0JREmSMHbZ5ZosW9pOng2bLTYBqnHSsTtlUxjRoEkPK61RWCDpk1QUCm7yKrajM/4AeWw9ARXQpPupPxBlsB9O3fvhQ0UCLM4gvSi8xX92PJr0sLKPhQU2i2uQtnAqJcyGBiBttZeHNI90P6U8ogyUGfFDOknTbeRDSicF5JEeVpLAsMA6+rG/IzmhKLTP+OpF2mgEyDIFK/zYaDSM8N0woBMiHDrpxUuX+JrVCt2iC1EDmxoDNpjZv5xzuXPSEaIvex1tpgewCZJ6gIC1NiINQuikr3o2v61MaNrwpVO3LQpgfSNF16nmKA9Mus6pz9kmXtNZsk2jKOu2CuE0GnbNecIa6SQ6RQfsYYbJhDUmwdZ4JFHCOph//4L+xkhHMnrVjpFiCInlRYUqaQRNah8UvKT4BPDcxXMjNZP2AH53pIRv0lHJCq8cKnoiqZRu/BULVMvihc9igPwkxvIDJNPiKQQ5pPDzXMueWN4VKx20TfrhHcj7ml6CgtScoN8K3nVwFFJJp6YCtMNzPML0wTv/VHlDTSA00r0I8goiDwpZsrLTitCn2W9ShnRRSkYegizFRCCbNxWkDOm8BJ5nTQWnaj+y2P3Rnio6U8rOD3ZVE8nB28yF/caFRrrsIXnVnFh0ntblGhXCO0/tcq2KPLLNHfJlxJ50Ui6ehWrUxE8D57W5Ontz44Wizd7Z7caedPphvNJJ67Rlmij6wGbmnbNGxJ50lcTjKsh/fnVrHuH5z61uY0reotQ8+m9NpEg3jSa9mj5EE96kZ9OHXcuU8qQXCh3yEi8hnSLetQxpR3qc4VwAP0C1D5UqH1GFcwH8ALkATOQDSEjXETrGH9FYkk4nZvCbhME1nAugLbADq2Bak87LhqFrw4kCrDYOD16T7akWnwokc1bpv8Wa9Er1LnzTpB3D9sEDZJVVq44F6QPXDdpAiJElSVABCjaKSA9ayJFOBNR/zYBNsSYdLsQ0Oav/a83FftuS5X0JkipwzQtrW9FtbXp9c06sSS/sgCFo/NEJs0y0Y2KKwa7WxWoodNKB3DHtbtNpg83FyINufsZ249rfYvP74Jh0/jEbL2GDCPDG8iK9dLkyn6u2h7757dg9vAiN9BYDW94nIoouXygfOO9DaVUtpT2xWDQf0OLXKUH6jDtmjvIiS5QPHqDrB3tBZnlU8TiefvuM0SlB+tHvj52rQpgoM5Io6ygPIstjYRihwv2QNSVIL+xEkbSVT1/Zwe+9oilm5TNXtjc5PaUc6QDygZnqF5nwggxYrEkvX6PCe0qES9IF+oUsJSCNoD45kSPdKzmxyG3aJEjGDhHCtM2H0okoitor4+ice+YOqdmy1u9Vpwdci3tE7cmykeqWQIk86YUdMQ8p8o4t2pqbCArLKBh/bMJMXh/Iq+hqPpeSvuKplZ1skC6at9tP6HBTcKL5aD++w828Pun5PhKko/Y8LXh2u7r/OebA2Pl+TbSieXvYzuHLbZHN4vLtw1byZGg7KveOoERuemNzQySrqFT3wre8Dm+kDfEyXtCAsz/SdLNJZFSA+B43saUZBUFii7CBwi67yLzBk9/bfuPZCV0rQhX4oA3fPSIPURS8NhEIED7ZZ0L2wSVY94f1zfqs6LujfPUK76u2G2h6oYE1rJ8H430sey7ttcc14QS8RMdeS0sZcAJljHRAN802rz6mzOLoCjzLop92dE7FtOYzHSHY9XeUNNxL47Fg0LlftDQ1QrpqFRZ2pRKFOdwL7Byvep/uKZg26YCsXA3BGQNVuEpxT6oK6FUNbwPFAukQdfnzRTqA5JgiQdjNT/RTjtA4c7knK2CieupljHRAVDOIvibMjY8p0BsoWaoUv7wFIh1gEyewS0TXBPoF/Qy8JaTseNE66QAp3MQuEW3aUmyDtdXQv/kpuGKcdABJFNglomviTGo7WULyjhOdkc6C5zkVN7Br73FHxs82xY8V0uO1YhHBnuORJdJdE2YGsSE9DrtPVcy+e87QSJEObyhiBKP/vUbzmi+5JssUkBmD9xbDzIHyFKGQDn9znIzIXkPXRJmG19SJgx7jpGMpiFoPqoK5Jils0glQM2Tur+YNCkS6zhY+If1MoHDgjvd21lAiHWedftK7JqSLgcIubCLRQo9WnPSbEsw1SVEj/SdkFJB6dwnpLkhPphe7pHOnl+RDap50rQ9psmT0T7qRJSMPyeYopM2RCIkZICQzgAoSg5cD0lNpirHBjUXSk0MM66Szvi6peFwXKdJJnObZTkbuiQsC+lmwbDZZwSDQzWwkMv1bKrlgEE+v8ytlfuKUdF6sPes46po8E1rO+jSKykiEQrpIYNr/Je5udaLn7JXXe3fopMvSd7CeXvFayZy5YpH5qatu+Y2QLk5Q8xNon8a4ukqrTI9wG7dOeu7YdreqPgB9Xxx2qWxQgGrskZ9knMoX6q692SVknMJfdKtJWiEdQUx+HoZtJy6BXrJgAB5g+DNKOp0oUhe8KOkoaTwvpFEl7IWHrKrlPjRGumqnCHBFoCsCXr3ajMIcLwreRQnPEXtGLtXJvkHQqHvjRwOTLgrDxiuJUO0gOa/iFqaO82OE5HvV4VNJGyv8AdmVcUqEkxEkG/BLLkFUEzKQ2qQLf7uot+4zITkFTvjrtq/3DN2PV1uBiNQBEShKqUeqNan+6ulrfuzf1LPCCBgp0glcJtnhFYRFPenQuAijk6ikk1rw4MK+svtTinTXidNENaVTmnSXKQLpedsLez65qlLKkK4zF5tMhgngRF+175FXj1qcdqTbSPsKbHlzaz2Ve2u3rvN8SpAeNMGxTnIfmQ3k0DeHS/kdtNiRHjSVNzzJVEmfduv0sV7yeA1iSpAetaT1QFaVch+lNOkmyjPwnFZZ6NYnyunW6ASvHdTfSAHSz34w3RRMm/+0pb4X6X7sQ/1W9d/KttN5WpdrUo70KJXcARY8sLCfnykvsqSbLC4lC0xoPbzNXUHk3P7ujlphzutWGzdZRk12bhkkjSsB7bUQa9LjVjAQgI1m39/2Z8WWdNOlMXkHHqJM0UGAbHyxJd2KwA7W1WlPOh3niv92LU9akI4DYkL6kkeW9nAtT1qQXih0jKeW2JKOXAbZuXVPupYjrUjH8ZuJpJQJ6WkAuCjCnyjoRjGBPpwLkE7IubTRY/j+N7wk53HXsqQbnAuQLmANGDaMFwnEcC5AOgAO+zzT6NoX17VwLVu6wLkAqQ64llSoVfFdnqJXqFnxz2xCtQR24FyAVEeX6V1/JjtLD8PxIEGMFR2HaVH/9M/+5ZzLvZxGgFm/mD3MtawyoPK27cNL23AugF/s/+JAZkZGsX/g2H7StZOnupaHBUyJyIypougIdIqiyXHSdZOnFIWuZBTYdo2wDecCBEGroRffTSsMwhFRttO1XAAxJaoiKiZHOFt1mNTxBlq2loNb3etarqBwLkAQ4JPPUxokc972zvbaruTyG/zt0uQIN05kt+XJNfPOWSNcj3VQOBcgCGCxKFm21JcixcFv8+9f0D9MmUSmRFWEve+Ag7isPAEcxlPBMuRcgKDoOuOS4yoKhFDtoBVbvSAzJaoiDJMj5CwKPfFOvJAqViHnAgTFsieWd9VaC3fNeeLqT/dWsCGLlylRFbaUCxteUVCbCGEEu4UB5wKYQMXaF7yjq0yZlbM+XnUyP9eUDKqmRFWYNDmueja/rSxcVvh1+fHr5HpsTcG5ACbQL7//Fr8KhUzopLaWX+iYElVhwuQ49vC4OTrZFFhgeeN6bE3BuQAm4DdjJQsEpyI9hm7/uqZEVfgxOUL+NiPb/txE/6LEanGEcwFMoU6b7OdMKVjlhlXeQP4BlX5t55FUNTkicVCVnKqvm+o3rARDiaJrAqm+TCtZ8dIlvsba2/WzyYCUZJDT9LOHlb4sLDgXwBQQ6mUjPTJS/8DW7Pr5eEAqT52EhzoIKzliWHAugEmoFq2QAb4d3ef3OIAXx/Xz6ADyImGwSlpVL1zUp9lvXD+PaTgXwCSQDtDVrI1NIE5FZ901e/iQLUPzO13R+XpsJpHfRpTUHv+O32Hbx/W4D/ejHT+bYhpBZvupN08b73osTcO5ACaB7FIwy9matbHhG7xpyJo6bbOfhVnSxpJBBPSHfgdtHLwWcujIrTPbgz8TmbiiBucCmAbreed31oYywb3Aq8SIa0A+yKmj/LLZ3mRBiihB+wY4HSFlAzZ+yLvackire1AKBp9cpPt07QC0+OElPf3M2vDeazs693b4uLtW3kAz/4/ytx2VeweeR+W52dneT7mbMID4gxVPrezktwym747hlK9u5cgowHEyik/htA1pvHEYEaQIlQnknVjWDS69rpXTJjBzL30s71LXisoDTn7hq4STafgJoS6UqKat35pTgRWdoMPEjjeaHhyUu0PhF5S8m3rLtHHYnJlaN277n+116nWo/7RrBXQBpDjD89tUXmTzQuJAnGuguhwO8oIu/1Qq0FlX9MI38/N95URO+zahUwWp6AQzTlWtbSKjYNiO4StUuUN9SiwJUaMSExtKdals+oMCtS1NRYwZfZuRBF3mxG8SWH97yYOvgM1qg6kAVEz0+lrCl8iEfV4V5aqV/8B0hJhRRSfQLfStC6+SaggsSBRcX+FlgSnw4detr60LeFraigizouhE2XLHtrvVNBleJsIwi/WmImRLGpxT2HI5QASYLV20quj0TAAbdlAi8OmUuY3iU4eysa4VJRVQpnzZz2SbVhOuFgQ4FT707eGStvXQuqITIMpFZDryJP5HBZbZw3vl9d7tWjlSET2X9toj4pxXiFsHiPDa+va27LD0LzRFJ0DUiw4h+BqIintjE5XqdnDXwFJFtFkdc2DsfN324Mrg99AnVooOYP2uEgUjMx/i5E+W6iKBOeBLLLKCwJ1AtR18eV3omzNFJ8DhgigqRmY+xFo97kf1cQP4Xv/Khqbc8fAwP9bv1OCpoN6YsVZ0gpXPXNmejpKRmQ/hvBQk4DeBf4B3UYghz/x4fqXMT1RDEtNC0Qmg4DLzIU5go+5NmOpAtgNRdgJifsQ6PGohiM4F0EGDLg3/w/VAJyhairjWhZRVdAQcuB7gBD9h4PpB613rRMopOj6VYUf0JJAD42ErtV/KKfquD3dXhUdczRa1XpT5WfRYeNk+1wOb4Gzg0MhrjDG2GGOMdcorOpQYDvZInlkUnXQ2aSJFx/FwMptHEzA5epkNefdBBzpP7XItEpjaznBsTdGxzBh/bMJMbFh0/L9FDyxK9p8gGvAqEqDeVkZBvY71fzf+6IRZNpZEgW7Of351aywrMi/M+ktQwkSKLgp2ThANeAVTB20fugUdg65ZV/QDXx0sg1wfTXo1fcjWMkKk6Ejx4HowE4jhlaPRRp/QQejilJumToBu+lL0ja9taoQAZj85x4NApOiIH3U9mAnEyKpa7sOwFV0EBOBDd+GScJYceCui4BwlUvQwQ7gS6AOza1QUnQfo9hU3TJmUzOgJAiE2M3qyRk8QBLFdo+sgsbokSCmriw4SO3p6IS3s6KpITkZTE2l9MqqDxNcl3kh8XQwj8V6MHhLvRUtI/NGjhcQf3SKSCKNoIIkwCgCUEcTnUJbHJYkZdQ9ZzCiA9BdRLN3oXABE9bN2eFlmriQLgDvIsgAAdEIjTEgrn76yg2v9cq7oMEvV79zgSSGpklyLSV6X8CHL6wKIUtShCjfy96Slovde1meXKsGi9BdJpq7wIMvUBagkHW09os2dYdnMnSv6vPvmD/RjJhQlNEpyL9qHLPeinzTSqFeUsoqOrKlZVcp9FIRwWYq6JJuuHciy6WIP5bcwAL4Qq07m56aMoqP+TE63RidMES9LOprkRzcHr/zopkq9VGlU9bWwDp2sNQy/YBuDIDM/AknFi2DwKuKlkz1XFblj2t1me/1uvEEQYdv851UYIKlhpA+vGkaAn3zoOoDXa+QVHVYQVBMLa2C8Sr0ASVU6NQVXqeEatMKFKmBJQ3XDyCk6SGrco8kjtglAXUvUt0Sdy+G7R+Qtemhxr90f7amiKmdSZ5SGXp1RkzWLVAFrGk7CI6HoA9YO3BjkYXB6hlAsVBhGpWFUHLZ9uJBUjjZTORr7JFT0RmVvVPiGoaAovtfsZOIVwWRV0TGbinbdMB2BUNR2x5oOzvUy3wiXyDuxrFuq2+Fh5176WN6lKnzAmoLZW+dLqYKj3x87F23PuGPmqH75/be0GNjyvqLge9WXIqNg0rWTp4aq6Dj0WfHUyk77vziQ6VpReUApb5CDFxG2d9mmlQb2GG1H594ed9cCyN92VO4deB6vZ8asPHr/mAWsPXz4rhHLXI3f0R+OFdv0xuaGs+6aPRwrhpZDWt1Tqe6Fb+G5SmWW/mLti+tahKLoUYcomBpmSa9ivDTgPNZ1xiXHo+4tCfkgJ+RVeS4ya8vaRFSQ63E0DecCmARmKGxavZRDd7anlX/wpiFrkIIj7Ign9Id+EYCiqtSEE96s7YW1L61r7no8E0UXYNqt08f6USLd2Z4HeGNic4ZP7pAtQ/M7XdH5epwKqwBWK1yP+3A/2glSxU1l1vZC7+V9droeT5NwLoBJmDCD+Z3tXcLvrC0DzkRcP5dJOBfAFKCYNuzkJmZ7m4Bnp61l1JJHlvZw/Xym4FwAYwO+d/Qi0wON2qdRKyMoAmq1msiYRgPLKdfPZQrOBTCFOm2ynzM1wIiKUS0EO/KqUUtszKYEOAXW4QEHbrLILa0XvVSJb2ADdz22iaKfAjZfJgYWUTB+NoG2jshlbslegIOWTiSXCNNvnzHa9fgmin4KOG3zO5BY3waNesHLUbpcmc9NKjnSth38+lBpE/zgkA8n1n7kaD6gxa9dj68JOBfABPzkcs+snPWxySgX5JY0qehwnTDNEyK9sLnWkyWjIE4ZuURwLkDYCtawa84TtgZu4LpBG0woef81AzbZ5AyRX+3Gtb9FVR6YLl2Pc1A4FyAocPytMlh9VvbdHkYUelG6bP9KjtTJYfI34fjEGV6BMtm5dU+6HuegcC5AEMABSJbyAr/Nv39B/zBlgqcmsln5UXLc52qZsOaFta1kgTObXt+c43q8g8C5AEEgKhIA11tZHhLbwObPj6LP/dW8Qa45RbADL5DG9nLKNpwLEASthl58Nz0YcNLH+tO1XMBli3ru1VFylVzjYaMosKbotPmC7Epvu5YnCJwL4Bfwh4ePMnxTgjrl20L1i2q8rKLk+AK5llUG+PjD3Ln8yRWdXcviF84FCEK+Xyf8sLDz/V3VvfxQ8PuO93bWcC1rqsO5AKkOlK2UKTpKCLqWMR3gXIB0AJyjeEqOaCjXsqULnAuQDoD9nj29RZVjmEddy5YucC5AugB26J/85TMKeGW8E9iDcwHSCWMPjZsLRXeVOjmd4VyAdMOUG6dOdC1DOuJfuqk8bSQRI0cAAAAASUVORK5CYII=;" parent="1" vertex="1">
                    <mxGeometry x="847" y="1090" width="56" height="56" as="geometry"/>
                </mxCell>
                <mxCell id="113" value="" style="shape=image;imageAspect=0;aspect=fixed;verticalLabelPosition=bottom;verticalAlign=top;fontSize=16;fillColor=#E6E6E6;image=data:image/png,iVBORw0KGgoAAAANSUhEUgAAAoAAAAKACAYAAAAMzckjAAAACXBIWXMAAAsTAAALEwEAmpwYAAAAGXRFWHRTb2Z0d2FyZQBBZG9iZSBJbWFnZVJlYWR5ccllPAAAHmFJREFUeNrs3b+THdWZBuCDcYAji4zMrYyMUYYjLhmOPGRsxJBttvJfYPkvYAk3kohcG2kUuYh8FZmNNMrYSK2MjTRkOGL7VPeYQcaAUJ973+5+nqpTkl2myv5qru8733d+vFoAANiUV5UAAEAABABAAAQAQAAEAEAABABAAAQAQAAEAEAABABAAAQAQAAEAEAABABAAAQAQAAEAEAABAAQAAEAEAABABAAAQAQAAEAEAABABAAAQAQAAEAEAABABAAAQAQAAEAEAABABAAAQAQAAEAEAABAARAAAAEQAAABEAAAARAAAAEQAAABEAAAARAAAAEQAAABEAAAARAAAAEQAAABEAAAARAAAABEAAAARAAAAEQAAABEAAAARAAAAEQAAABEAAAARAAAAEQAAABEAAAARAAAAEQAAABEAAAARAAQAAEAEAABABgXX6pBHBwJ8O68RL//MWwLpURAAEQDuPGFOCqblpX3nnuP7s78H+3flpXakh8fO1f7//F3wHYmFeUAP6he279+lrY2630f/P10PjwuXAoJAIIgLAKV+PX3bWAdxX4+H41CF51E68CozE0gAAIkUGvm/5869rfmc/lFATrenrt74IhgAAIze2eC3o7JTmqfloPr4XCXlkABED4uU6m9c61v5Pvqlt4FQr3RacQQACE73F14nY3Bb6dkqxKPwXBx9OfF0oCIACyzcB3Pezp7m3L5RQEHwqEAAIg63Yq8CEQAgiArNvVSPf3xUiXF9NPQfBBsYcQQAAk3um1wNcpBzO5HgZ1BwEEQI7sxrXQd6ocHEA/rPMyjovPlQNAAOQwuinsfVjs5eO4LqcQ+EAYBBAAaevjKQB2SoEwCCAAsi21+/ehMIgwCCAAsk3X9wHeUA7CwuC9YX1aHCABBEBowqEQkvXD+qSMXcFeOQABEObXDeusjGPiTjkIU0Pgp8WIGACa2Q3r7rC+sayw9ayMB5v8kgIAjdQR8e1hPRE8rMD112LrAgA0Vb9o7wsdVuCqv6DcKQ40AUAzXRlHcM8EDytw1a0LLjwHgEZqt+WsGA9bxsMAsEln0xeu4GEljofPfEQBoJ1dsU/Qyj09fKfYJwgAzXTFNTKWIAgAgqBllbwDI52PKQAIgpYgCAAIgpYgCHAYryoBK3Q5rAdlfNO17sFyXxtJ6s9jffmmvsV+MayvlQQQAEEQZBt2w/r3Yf1KEASAtl+47hG0Uk8N3/YRBYC2QfCR0GEFLhdKAwdhBMwW9cP6r2E9LeNY2F1tpKg/i6fTLylPp59VAAEQZlT3XdX9gX+fguBrSkKIroydwPpz+T9l3M8KIADCTOrG+/2w/rs4KEKeN6cg6KAIADS0K/YHWrn7A099RAGgnXoi85nQYQWuepK98xEFXoYRMHy/z8t4UOSNYixMlq64SBoAmtsVY2HLWBhYER1A+HF9GbuBtePitDBJ6sGlD6afy8+KbiAANNEVr4lYXhMBFk4HEF5MvY+t3h341bDeLrqB5Kg/i++VccvCw+LuQEAAhNnVQyL17sCujHe1QYr6M3lWxgvOP1cOAGijbsJ3ZYzlyhhgMXQA4eV9UcZDIm8W3UCy1PB3VnQDAQEQmqinL+tI2N5A0tgbCAAH0BUnha3ck8JnPqKADiDM7+qk8CtT1wVS1G5g3bPq3kAAaKh+0dbXGnSfrMRXRPyCAhulAwhtfVnGbqA3hUlTXxE5K2Oneq8cIAAC86pjtgfDelrGjosDIiTZFQdEAKCp2gV8VIwfrcwDIqc+orANOoBwWHUkXK+LMRImTe1Mf1DG0fBnygEAbZwVL4hYuS+I3PARBYA2jISt5JHwzkcU1skIGI7raiTsGTnS1JHwWRlft/GMHAiAwMyunpFzcTSJ6jNyXRlPCbs4GgAaqKcw7Qu0EtejKQgCK/ALJYAo58N6d1gXSkGYq/2qO6WA5TMChjz2BZLqal/gU7+kgAAIzO9qX2C9iuNt5SBM3arQlfGFGwCggbNi/5nlvkBgRvYAQr57ZdwX6J1W0uymENgpBQiAwPz2UwjslYIwV4dDPG0IAiDQQN10f6vYfE+eOgauncBTpYBlcAgEluXqcIgTwqSpJ4Q/KE4IgwAINA2BXTF2I0/tAtaO4GdKAQIgML96BYfn40j0dnFNDAiAQDP7Mo7c7L0izUnxhjDEekUJYBXOhnVXGQhU9wO6xgjCOAUM63BvWO/7kiVQ7QS6MBrC6ACCL1s4BJ1ACKIDCL5k4ZC/nHRKAQIgIASyrRDo1RAQAAEhkI25ejVECAQBEBACEQIBARAQAhECAQEQEAIRAgEBEBACEQIBARAQAhECAQEQEAJZQgi8X1xiDgIgIASyKV3xkg0IgIAQyOZ4zhAEQKBxCPxIGRACQQAEtuVcCCQ4BN5XBmjjVSWAzaudwKfDOlUKwnTTeqAUIAACbUJgHbe9rRSEORECQQAE2vls+qJ1FxuJIfCrYX2uFCAAAvN7MH3ZvqkUhHmvjFsVLpQCXt4rSgA8x6sMJLslBMLLcwoYeF69G7DeEdgrBYH8cgICINAwBL5fXBRNHk/GgQAINHQxhUBI0xUXRcNLcQgE+CF9cUcgmd6YluthQAAEGqidwK7Yd0We+jNZDzPulQIEQGB+tcuym4IgJKk/l66HgRfkGhjgp3I9DKmuTq4LgfATOQQCvMiX7EfFyWAyfzlxMhgEQKCRiykEQppuCoHAT2APIPCivijj9pGdUhAYAmsX8DOlAAEQmN++eDOYTG8Xh0LgRzkEAvxctdPyqDgZTB6HQuBH2AMIvMyXrOfiSP3l5G5xKAT+JSNg4GV8Oaz/K14KIY+XQkAABBryUgip6s/kV8P6XCngu+wBBObgkmiS3Sr2A8J32AMIzMEl0SRzSTQ8xwgYmIv9gKSq4c9+QBAAgUbqmM39gCSqP5fuB4SJPYDA3NwPSKq6RaHuB+yVgq2zBxBo8SXrvWBSfznxXjAUI2Cgjb54L5hMb0w/m3ulYMuMgIGW6ijY1TAkelcIZMuMgIGWXA1DKk/FsWlGwEBL9WqYvw/rPaUgTA1/rw3rM6Vgi4yAgUOor4TslIFARsEIgACNdGXcD2jkRpq+jFfD2KrAphgBA4dQv1yNgklkFMwm6QACh2QUTCqjYARAgEa6YhRMpr4YBbMhRsDAIRkFk8oomE3RAQSOwSiYVEbBCIAAjdTXQR4pA4EuyjgKhlUzAgaO4cvirWAyeSuYTdABBI6l7rmqXcBOKQh0s4wHQ2CVvAUMHEs9EPKRMhDqrhKwZkbAwDH1ZdwP+KZSEKYb1uNhfaEUrJERMJDwRetuQFJ/QXE3IKukAwgcW/1y/VVxIIQ89ZeSem/lXilYGx1AIMWT4kAImRwIYXUcAgFSOBBCKgdCWB0jYCBFX8YxcKcUhKk/kw+LLiArYgQMpH3RPlEGQn9BuakMrIUOIJDksnghhEz1QMhXw/pcKVgDHUAg8Yv2SXEtDJm/oNwsroVhBXQAgTRfl/HqjfeUgjCvTeszpWDpdACBVK6FIZVrYVg8HUAg1dNhfaAMBKrbEx4oAwIgwPzqG6y7ogtInvp+tWthEAABGqldwDNlIFD9xeRTZUAABJhfX3QByQ2AuoAIgACN6AKSHAJ1AREAARropy/aE6UgMAA+LuN+VVgU18AAS/mi9UQcqb+geCKOxdEBBJbgsugCkqleCVO3KVwoBUuiAwgsRQ2AuoAk6osuIAujAwgshS4gqXQBWRwdQGBJagDUBSRRX3QBWRAdQGBJdAFJVbuATgSzGDqAwNLUAKgLSKL9sN5VBpbgF0oALEw/fdFCmt20IJ4RMLBEXgchVVe8DoIACNBEX7wRTG4A9EYwAiBAI7qAJHugBCRzCARYsnoYpFMGAtUrYXplIJUOILBkXw3rVBkIVK+F0QUklg4gsHTPpi9bSFLvrLw5/QlxdACBpftVcfUGeV4b1t+LK4sIpQMILF3t/j1TBgL1xfNwhNIBBJbu6+J5OHJ/Oamn1S+UgjReAgHW4BMlINSHSoAACNBG7bDslYFAu6I7TSAjYGAt6p5mV8KQqB4IcSUMcf+HCbAWroQhkSthiKMDCKzJG8N6WxkIUzuA/1scBiGIDiCwJl0Zn4eDNDX83VIGUjgEAqxJXxwGIdNJcRiEIEbAwNo4DEIqh0GI+j9KgLVxGIREDoMQQwcQWCOHQUjkMAgx7AEE1uhTJSCUl0GIYAQMrNWjYtM9meoYuFcGjskIGFirXw3rPWUg0FfFaXWOTAcQWKt6COSZMhCoL2MXEI7GHkBgrepJy3NlIFBXbE/gyIyAgTWrY2B3ApLInYAclREwsGZ1DPykuBOQPLVD/boycCw6gMCafT2sN4txG3lqB/DxsL5QCo7BHkBg7YzZSPV7JeBYjICBLfA0HImMgTkaI2BgC4yBSWQMzNEYAQNbYAxMKmNgjsIIGNgKY2ASGQNzFEbAwFYYA5PIGJijMAIGtsIYmFTGwBycETCwFd4GJlVfvA3MgekAAlvhbWBSdcX2BA7MHkBgS7wNTKr6as1nysCh6AACW7JXAkLtlAABEKCNflgXykCgOgLulAEBEKCNvRIQaqcECIAAbbgOhlSug+FgXAMDbJFXQUjkVRAORgcQ2KK9EhCo/lKyUwYEQIA2jIFJJQAiAAI0slcCQtkHyEHYAwhs1ZPi2g0y1X2Al8pASzqAwFbtlYBQOyVAAARo46ESEOodJUAABGhjrwSE2ikBrdkDCGyZfYCksg+QpnQAgS3bKwGhdkqAAAjQhn2ApLIPEAEQoJG9EhDqRAloyR5AYOvsA8R3NJujAwhs3YUSEGqnBAiAAG3YB4gAiAAIsDE6gKR6Swloxf4CgFK+UQIC9cO6qQy0oAMI4DQwmbrigBICIEAzxsCkch0MAiBAI4+VAAEQARBgW3QASeVFEJpwCARg5CAIiS6H9boyMDcdQIDRXgkIdKM4CIIACNBMrwSEEgARAAEacRCEVDslQAAEaMNBEFJ5EQQBEEAAZGM6JWBuTgEDfOuJL1t8X7MFOoAA3+qVgFAuhEYABGjkoRIQqlMCBECANi6VgFA6gAiAAI04CEIqJ4ERAAEEQDbmhhIwJ6eKAL7Lm8D4zmb1dAABvmuvBITSBUQABGjEQRBSOQiCAAjQiDeBSdUpAQIgQBu9EiAAIgACCICQ4DdKgAAIIACyLZ0SIAACCIAIgCAAAszESWAEQARAgI3xIgip3AWIAAgAG+MuQARAgEYeKgEgAAIACXZKgAAI0EavBIAACCAAQoJfKwECIABsi0MgCIAAjeyVABAAAYAE7gFkFq8oAcD3+kYJ8N3NWukAAnw/r4EAAiDAxngPGBAAAYAIOyVAAAQAQAAEmIH3gAEBEAAAARAAODyvgSAAAsDGuAwaARCgEdfAAAIgwMa4CBoQAAEAEAABABAAAYDGfq0ECIAAsC2ugUEABABAAAQAQAAEAEAABAAQAAEAEAABABAAAQAQAAEAEAABABAAAQAQAAEAEAABABAAAQAQAAFgu3olQAAEgG15qgQIgAAACIAAAAiAAC+qUwJAAAQQAAEEQAAABEAAoK29EiAAAgAgAALM4DdKAAiAANvSKQEgAAIACS6UAAEQALblUgl4Wa8oAcD3+kYJ8N3NWukAAsBy6P4hAALAxtj/hwAI0MiJEgACIMC23FACQvVKgAAIANvyVAkQAAHa2CkBIAACAAkcAkEABGjEO8Ckcg0MAiBAI50SEKpXAgRAgDacAkYAZNU8JwPwzzwDR6I6/n1dGZiDDiDAd+n+kcoBEARAgEa8AkIqB0AQAAEa0QEk1WMlQAAEaEMHkFQ6gAiAAI24A5BU9gAiAAI00ikBoXolYC6ugQH4rmfFPkB8Z7NyOoAA3yX8kcj4FwEQoJGdEhDKARAEQIBGdP9I9VAJEAAB2nAFDKl6JUAABGjjLSVAAEQABNiWTgkItVcCBECANoyASdQrAQIggPCHAAgCIIAAyIo5AYwACNBIpwSE6pUAARCgjXeUgFBeAWF23hUEGHkDGN/VbIYOIMA4/hX+SLRXAgRAgDYcACGV8S8CIIAAyMY8VgIEQIA2HAAhlQ4gTdhYCuAACL6n2RgdQGDrOuGPUHslQAAEaGOnBIQy/kUABGjkLSUglCfgEAABGtkpAaH2SoAACDC/uvfPFTAk6od1qQwIgADzE/5ItVcCBECANnZKQCj7/xAAARpxATSp9kpASy6YBLbsGyUgUD+sm8pASzqAwFbtlIBQeyVAAAQQANkW+/8QAAEasf+PVHsloDV7AIEtqvf/PVMGAvXF/j8OQAcQ2KKdEhBqrwQIgABtGP+S6oEScAhGwMAWPRlWpwwEer14Ao4D0AEEtqYT/gh1IfwhAAK0caoEhDL+RQAEaMT+P1KdKwGHYg8gsDWefyNRHf2+rgwcig4gsCXGv6TS/UMABGjk90pAKPv/OCgjYGBL6usfN5SBQK5/4aB0AIGtOBH+CHUu/CEAArTxoRIQyviXgzMCBrbC6x+kMv7l4HQAgS04Ef4ItRf+EAAB2jD+JZXxL0dhBAxsgfEvqW4Oq1cGDk0HEFg7419S7YU/BECANox/SfWpEnAsRsDA2hn/ksrpX45GBxBYM+NfUrn8GQEQoJH/UAJCOf3LURkBA2vm7V8S1c7fzaIDyBHpAAJrdSr8Ecr4FwEQoBGnf0ll/MvRGQEDa1Q7f8+UgUB9Gce/cFQ6gMAanSkBoc6VgAQ6gMAaPSrjFTCQxtNvRNABBNbmRPgj1F74QwAEaMPdf6Ty9BsxjICBNamHP54U17+Qp1778roykEIHEFgTd/+R6p4SkEQHEFgThz9I5fAHUXQAgbVw+INUe+EPARCgDYc/SOXwB3GMgIE18PIHqfri5Q8C6QACa3BbCQil+0ckHUBgDerVL50yEKhe/XKpDKTRAQSW7kz4I9Q94Q8BEKCND5WAUJ8oAQIgwPx204I0+2FdKAMCIMD8dP9I9SclIJlDIMBSdWU8/AFp+uLqF8LpAAJL9UclIJTuH/F0AIElcvEzqfqi+8cC6AACS+TiZ1I5+csi6AACS1O7f0+mPyFJvfPvZnH3HwugAwgszW3hj1CfCH8shQ4gsCS6f6TS/WNRdACBJdH9I5XuH4uiAwgshe4fqXT/WBwdQGApdP9IpfvH4ugAAkug+0cq3T8WSQcQWALdP1Lp/rFIOoBAOt0/Uun+sVg6gEA63T9S6f6xWDqAQLJuWI8EQAL1w7olALJUOoBAsj8Kf4T6k/DHkukAAqm6Mu79gzR9Gff+wWLpAAKpPlYCQv1BCVg6HUAg0W5Yf1UGAu2H9a4ysHSvKgEQ6G4ZR8CQ5qMyjoBh0YyAgTRnZewAQpp7ZewAwuIZAQNJ6onfeu1LpxSEqSd+67UvvVKwBjqAQJLbwh+hPhH+WBMdQCBFDX4ufSZRDX4ufWZVdACBFB8Lf4T6g/DH2ugAAgl2xbUvZNoX176wQq6BARLU8Kf7R6L3h/WlMrA2RsDAsd0pDn6Q6T+HdaEMrJERMHBMNfg5+EGivjj4wYrpAALH5OAHqRz8QAAEaOB0WpBmP6xzZWDNHAIBjqF2/e4X3T/y1K7f74ruHyunAwgcwx+Lgx9k+lPx4gcb4BAIcGgnZTz4AWnqid9bysAWGAEDh/aXYb2hDASqo193/rEJRsDAId0pYwcQ0tTRrzv/2AwjYOBQjH5JZfTL5hgBA4di9Esqo182xwgYOIQ7xeiXTEa/bJIRMNCa0S+pjH7ZLCNgoKWrC5+Nfklk9MtmGQEDLdULn41+SWT0y6YZAQOt7Ib1V2Ug0H5Y7yoDW2YEDLRQR79/G9ZrSkEYb/1CMQIG2rg7hUBI81Hx1i8IgMDsbg/rVBkIdG9Y58oA9gAC86oHPuq+P90/0vRlvPLF6BeKPYDAfK6ufOmUgkDvFqNf+AcjYGAuHxdXvpDpD8WVLwAwu7NhfWNZgeu+jyf8MyNg4GXVrt+fiytfyNOX8cqXr5UCBEBgPvb9kcy+P/gX7AEEXoZ9f6Sq9/3Z9wcAM6v3/dljZiWuuz6e8MPcAwj8HLXr90gZCFS7fnX0674/+AH2AAIv6sYU/hz6IM3lFP6+VAr4YfYAAi/KSx+ker849AECIDC7urfKoQ8S1cue98oAAPNy6MNy6ANWwiEQ4Kc4LV5UIFM99HFLGeDFOAQC/JiTKfw59EGafli/LV76AAEQmFU97FEPfbyhFISpJ35/Vxz6AAEQmN3fhvWmMhDo34pDH/CzOQUM/CtO/JKqPvN2rgwAMK/6xq/TpZYTvwCwEWdChiX8wbrZAwg8H/58yZKoXvfyO2UAARCYV93v9+fiuhcyw19949d1LyAAAjOHP2/8kqhe93Jr+hMQAIGZ1ND3SPgjNPzVzl+vFDAv18CA8KfzR3L4u1AKmJ8OIAh/7voj0W+FP2hHBxCEP0jzkfAHbekAwjb9TfgjOPzdUwZoSwcQtscTbwh/sHE6gLC98HemDAh/IAACwh8IfyAAAsIfCH8gAALCHwh/IAACwh8IfyAAAsIfCH8gAAIHVi95/vOwPlAKhD/g+/xSCWB14c8LHwh/wA/SAQThD4Q/2BgdQBD+oKXLYb1bvO0LUXQAYflOpvD3plIg/AECIGwn/L2hFITph/U74Q8EQGBeu2H9pYzjX0hSQ99vpxAICIDATM6GdX9YrykFgeGvjn0vlQJy/UIJYHFul/GSZ0hzb1i3hD8AmFcNft9YVuD62McTAOZV9/ndFzKs0HXmIwrL4h5AyNdN4c8df6Spo973h7VXClgWh0AgWw19f5tCICTpy3jNy+dKAQIgMJ+zMl7z4qQvaVzzAgvnFDBkqhvqnfQl0b3ipC8AzMphD8thD6A5I2DIcTKFv51SEKZ2++p+v3OlAAEQmM/pFP46pSDM1cse3vSFFbEHEI7v4yn8edOXNPfKuN+vVwoAmEcNfH8t9pVZeetZsd8PVs1F0HAcu6LrR6a+jJc7G/nCihkBw+HdKWPnT/gjTT3kcUv4A4D5GPlayeu2jyhsh1PAcBi7Mj7p9qZSEKZ2+1zxAhtjBAzt1VO+Rr4kuldc8QIAs6oXOz8qRotW5infUx9RAJjX7elLVtiw0lbtRnc+ogAwHwc9rOSun4MeADCz06LrZ2WuuhXhxEcUAObt+t0XMqzQdcdHFADmpetn6foBwEbo+lm6fgCwIU74WsknfHX9AGBGXXHC13LCFwA2446QYYWu+8W9fgAwq92wnggZVuCqP5de8wCAGXXFIQ8r+5CHt6UBYEb1y9UhD8szbgCwAbti3GsZ9wLAJnTF6V4r93TvHR9RAJhP3UP1sZBhha67xT4/AJjVnWKfn+UyZwDYhLNin5+V+3bvzkcUAOazE/ysknvA48xHFADmDX4OeFiCHwAIfpZ19JO9DngAgOBnCX4AgOBnCX4AgOBnLWqP323BDwDmc1bGazMEDcvhDgBYsRvFPX5W9gXOgh8AzBj87hQvd1iZ635xgTMAzKY+h3VXwLBK5sGO+rPZ+ZgCwDzOioMdloMdAM38UgkI0U3B70NdFQKdD+uTYe2VAhAA4eWdTqHvVCkI0w/r02Hdm/4OIADCS+iKbh+5zqfgd64UgAAIL6fumbrq9u2UgzB9GUe850W3DxAA4aXV0Pf76U8b50lyWb7d23ehHIAACC+nXt9yta+vUw7C3BvWg2LECwiAIPSxaufXQt+lcgACIMxjNy3hD6EPINwrSsDMagC82ve3Uw4O6PJa6NsLfQACIMdx47kw6BAIc+ufC30ACICE2V0LgyfKwc9UA9/D4soWAAGQxemmIPhOsXeQH1avaNlfC30ACICsxMlzgdC4WOB7WOzlAxAA2WQgfKvoEAp8AAiAbFI3hcJ3roVDludyCnmPpz/3SgIgAMKLOJnWW0JhbNir3b2H05919coCIABCi1DYlW+7hV0xPj6Eq4D3tIxdvYtilAsgAMKR7a6FwbeuhUR+uquOXn8t6F39ewAIgLAYN8q3XcO6fnPt790G67Gf/qyh7qvybSdv70cFQACErQXEMv15dT3NO9f+M7vw/w19+XbvXQ1zj6+FvMuiiwcgAAKzBcYrXflp3cRfX/tnrwe1H7P/if8eAAAAsEWvKgEAgAAIAIAACACAAAgAgAAIAIAACACAAAgAgAAIAIAACACAAAgAgAAIAIAACACAAAgAgAAIACAAAgAgAAIAIAACACAAAgAgAAIAIAACACAAAgAgAAIAIAACACAAAgAgAAIAIAACACAAAgAgAAIACIAAAAiAAAAIgAAACIAAAAiAAAAIgAAACIAAAAiAAAAIgAAACIAAAAiAAAAIgAAACIAAAAIgAAACIAAAAiAAAAIgAAACIAAAAiAAAAIgAAACIAAAh/D/AgwAg7+OPXchlsAAAAAASUVORK5CYII=;" parent="1" vertex="1">
                    <mxGeometry x="270" y="1090" width="50" height="50" as="geometry"/>
                </mxCell>
            </root>
        </mxGraphModel>
    </diagram>
</mxfile>